<svg width="74" height="18" viewBox="0 0 74 18" fill="none" xmlns="http://www.w3.org/2000/svg">
<path d="M11.396 6.86C12.124 6.86 12.736 7.02 13.232 7.34C13.728 7.66 14.1 8.148 14.348 8.804C14.604 9.452 14.732 10.28 14.732 11.288V17H13.376V11.648C13.376 10.408 13.208 9.496 12.872 8.912C12.536 8.328 11.936 8.036 11.072 8.036C10.632 8.036 10.196 8.16 9.764 8.408C9.34 8.648 8.988 9.032 8.708 9.56C8.428 10.088 8.288 10.784 8.288 11.648V17H6.98V11.648C6.98 10.408 6.764 9.496 6.332 8.912C5.9 8.328 5.332 8.036 4.628 8.036C4.18 8.036 3.744 8.152 3.32 8.384C2.904 8.616 2.56 9 2.288 9.536C2.024 10.064 1.892 10.768 1.892 11.648V17H0.536V7.148H1.892V8.708C1.972 8.46 2.152 8.192 2.432 7.904C2.72 7.616 3.088 7.372 3.536 7.172C3.984 6.964 4.496 6.86 5.072 6.86C5.68 6.86 6.184 6.996 6.584 7.268C6.984 7.54 7.296 7.864 7.52 8.24C7.744 8.616 7.884 8.96 7.94 9.272C8.06 8.896 8.276 8.524 8.588 8.156C8.9 7.788 9.296 7.48 9.776 7.232C10.256 6.984 10.796 6.86 11.396 6.86ZM22.3021 17.288C21.3181 17.288 20.4421 17.06 19.6741 16.604C18.9141 16.14 18.3141 15.516 17.8741 14.732C17.4421 13.948 17.2261 13.072 17.2261 12.104C17.2261 11.136 17.4421 10.256 17.8741 9.464C18.3141 8.664 18.9141 8.032 19.6741 7.568C20.4421 7.096 21.3181 6.86 22.3021 6.86C23.2861 6.86 24.1541 7.096 24.9061 7.568C25.6661 8.032 26.2621 8.664 26.6941 9.464C27.1261 10.256 27.3421 11.136 27.3421 12.104C27.3421 13.072 27.1261 13.948 26.6941 14.732C26.2621 15.516 25.6661 16.14 24.9061 16.604C24.1541 17.06 23.2861 17.288 22.3021 17.288ZM22.3021 16.052C23.0461 16.052 23.6941 15.88 24.2461 15.536C24.8061 15.192 25.2381 14.72 25.5421 14.12C25.8541 13.52 26.0101 12.848 26.0101 12.104C26.0101 11.352 25.8541 10.676 25.5421 10.076C25.2381 9.468 24.8061 8.988 24.2461 8.636C23.6941 8.276 23.0461 8.096 22.3021 8.096C21.5501 8.096 20.8941 8.276 20.3341 8.636C19.7741 8.988 19.3381 9.468 19.0261 10.076C18.7141 10.676 18.5581 11.352 18.5581 12.104C18.5581 12.848 18.7141 13.52 19.0261 14.12C19.3381 14.72 19.7741 15.192 20.3341 15.536C20.8941 15.88 21.5501 16.052 22.3021 16.052ZM31.2695 17H29.9255V7.148H31.2695V8.924H31.2095C31.2415 8.716 31.3855 8.452 31.6415 8.132C31.9055 7.804 32.2615 7.512 32.7095 7.256C33.1575 6.992 33.6855 6.86 34.2935 6.86C34.7575 6.86 35.1535 6.92 35.4815 7.04C35.8175 7.152 36.0495 7.268 36.1775 7.388L35.5775 8.552C35.4735 8.448 35.2775 8.344 34.9895 8.24C34.7095 8.136 34.3695 8.084 33.9695 8.084C33.4175 8.084 32.9375 8.268 32.5295 8.636C32.1295 9.004 31.8175 9.444 31.5935 9.956C31.3775 10.46 31.2695 10.924 31.2695 11.348V17ZM37.7885 1.16H47.4845V2.216L39.0725 17H37.5365L45.8765 2.42H37.7885V1.16ZM49.424 9.092C49.424 7.668 49.588 6.44 49.916 5.408C50.252 4.368 50.696 3.516 51.248 2.852C51.808 2.18 52.428 1.684 53.108 1.364C53.796 1.036 54.492 0.871999 55.196 0.871999C55.9 0.871999 56.592 1.036 57.272 1.364C57.96 1.684 58.58 2.18 59.132 2.852C59.684 3.516 60.124 4.368 60.452 5.408C60.78 6.44 60.944 7.668 60.944 9.092C60.944 10.516 60.78 11.744 60.452 12.776C60.124 13.8 59.684 14.648 59.132 15.32C58.58 15.984 57.96 16.48 57.272 16.808C56.592 17.128 55.9 17.288 55.196 17.288C54.492 17.288 53.796 17.128 53.108 16.808C52.428 16.48 51.808 15.984 51.248 15.32C50.696 14.648 50.252 13.8 49.916 12.776C49.588 11.744 49.424 10.516 49.424 9.092ZM50.816 9.092C50.816 10.636 51.02 11.924 51.428 12.956C51.844 13.98 52.384 14.748 53.048 15.26C53.712 15.764 54.428 16.016 55.196 16.016C55.972 16.016 56.688 15.764 57.344 15.26C58.008 14.748 58.54 13.98 58.94 12.956C59.348 11.924 59.552 10.636 59.552 9.092C59.552 7.54 59.348 6.252 58.94 5.228C58.54 4.196 58.008 3.424 57.344 2.912C56.688 2.4 55.972 2.144 55.196 2.144C54.428 2.144 53.712 2.4 53.048 2.912C52.384 3.424 51.844 4.196 51.428 5.228C51.02 6.26 50.816 7.548 50.816 9.092ZM64.6687 13.94C64.7087 14.052 64.8007 14.224 64.9447 14.456C65.0887 14.68 65.2967 14.916 65.5687 15.164C65.8487 15.404 66.2007 15.612 66.6247 15.788C67.0487 15.964 67.5607 16.052 68.1607 16.052C69.3687 16.052 70.3167 15.664 71.0047 14.888C71.7007 14.112 72.0407 13.08 72.0247 11.792C72.0087 10.6 71.6927 9.688 71.0767 9.056C70.4607 8.416 69.6527 8.096 68.6527 8.096C68.0287 8.096 67.4807 8.212 67.0087 8.444C66.5447 8.668 66.1647 8.944 65.8687 9.272C65.5807 9.6 65.3767 9.912 65.2567 10.208L63.9967 9.812L65.3167 1.16H72.7447V2.42H66.5287L65.6647 8.252C65.7047 8.172 65.8487 8.024 66.0967 7.808C66.3447 7.592 66.7047 7.388 67.1767 7.196C67.6487 6.996 68.2327 6.896 68.9287 6.896C69.7367 6.896 70.4767 7.076 71.1487 7.436C71.8207 7.796 72.3607 8.336 72.7687 9.056C73.1767 9.776 73.3807 10.676 73.3807 11.756C73.3887 12.828 73.1927 13.78 72.7927 14.612C72.4007 15.444 71.8167 16.1 71.0407 16.58C70.2647 17.052 69.3167 17.288 68.1967 17.288C67.3887 17.288 66.6967 17.18 66.1207 16.964C65.5527 16.748 65.0807 16.484 64.7047 16.172C64.3287 15.86 64.0407 15.56 63.8407 15.272C63.6407 14.976 63.5127 14.756 63.4567 14.612L64.6687 13.94Z" fill="#161515"/>
</svg>
